<svg xmlns="http://www.w3.org/2000/svg" width="348" height="72"><g fill="none" fill-rule="evenodd"><path fill="#FC6D0B" d="m303.022 14 10.72 14-6.798 8.024L290 14z"/><path d="M78.557 29.035c.98-3.652.574-6.456-1.218-8.408-1.792-1.954-4.93-2.93-9.414-2.93h-17.2l-10.35 38.628h8.356l4.172-15.572h5.48c1.228 0 2.196.2 2.904.598.708.398 1.124 1.104 1.252 2.116l1.49 12.858h8.952l-1.452-11.99c-.296-2.676-1.52-4.25-3.674-4.72 2.746-.794 5.044-2.116 6.894-3.96 1.85-1.844 3.12-4.05 3.808-6.62m-7.978.218c-.466 1.736-1.368 3.01-2.708 3.824-1.34.814-3.22 1.222-5.644 1.222h-7.706l2.706-10.092h7.704c2.424 0 4.086.406 4.99 1.22.902.814 1.122 2.09.658 3.826m31.948-.435-1.046 3.906c-.454-1.41-1.328-2.532-2.624-3.362-1.298-.832-2.904-1.25-4.822-1.25-2.35 0-4.61.606-6.78 1.818-2.168 1.212-4.064 2.922-5.686 5.128-1.622 2.206-2.812 4.72-3.568 7.54-.756 2.822-.908 5.308-.452 7.46.454 2.152 1.44 3.808 2.956 4.964 1.516 1.158 3.468 1.736 5.856 1.736 1.916 0 3.742-.398 5.474-1.194a12.753 12.753 0 0 0 4.414-3.308l-1.092 4.068h8.082l7.372-27.506h-8.084zM98.865 42.49c-.698 2.604-1.774 4.594-3.226 5.968-1.454 1.374-3.194 2.062-5.218 2.062-2.064 0-3.464-.678-4.202-2.036-.742-1.356-.768-3.316-.078-5.886.686-2.568 1.784-4.574 3.294-6.022 1.508-1.446 3.274-2.17 5.302-2.17 2.024 0 3.394.698 4.106 2.09.71 1.392.72 3.39.022 5.994zm40.811-13.672h-23.492l-1.642 6.132h13.672l-18.076 15.624-1.542 5.75h24.25l1.644-6.13h-14.646l18.348-15.842zm25.411 1.03c-1.86-1.156-4.236-1.736-7.13-1.736-2.93 0-5.644.58-8.144 1.736a17.682 17.682 0 0 0-6.382 4.992c-1.756 2.17-3.024 4.702-3.8 7.596-.774 2.894-.866 5.424-.27 7.594.594 2.172 1.828 3.834 3.708 4.992 1.878 1.158 4.282 1.736 7.212 1.736 2.894 0 5.58-.578 8.062-1.736 2.476-1.158 4.596-2.82 6.354-4.992 1.756-2.17 3.022-4.7 3.798-7.594.776-2.894.866-5.426.272-7.596s-1.822-3.834-3.68-4.992m-4.73 12.588c-.726 2.712-1.804 4.738-3.228 6.076-1.426 1.338-3.152 2.006-5.176 2.006-4.232 0-5.626-2.692-4.182-8.082.718-2.678 1.8-4.694 3.248-6.05 1.448-1.356 3.202-2.034 5.264-2.034 2.026 0 3.392.678 4.094 2.034.704 1.356.7 3.372-.02 6.05m92.938-13.618-1.046 3.906c-.454-1.41-1.328-2.532-2.624-3.362-1.298-.832-2.904-1.25-4.822-1.25-2.35 0-4.61.606-6.78 1.818-2.168 1.212-4.064 2.922-5.686 5.128-1.622 2.206-2.812 4.72-3.568 7.54-.756 2.822-.906 5.308-.452 7.46s1.438 3.808 2.956 4.964c1.516 1.158 3.468 1.736 5.856 1.736 1.916 0 3.742-.398 5.474-1.194a12.753 12.753 0 0 0 4.414-3.308l-1.092 4.068h8.082l7.372-27.506h-8.084zm-3.662 13.672c-.698 2.604-1.774 4.594-3.226 5.968-1.454 1.374-3.196 2.062-5.22 2.062-2.06 0-3.462-.678-4.2-2.036-.742-1.356-.768-3.316-.078-5.886.686-2.568 1.784-4.574 3.294-6.022 1.508-1.446 3.274-2.17 5.302-2.17 2.024 0 3.394.698 4.106 2.09.71 1.392.72 3.39.022 5.994zm-55.726-6.293 2.06-7.486c-.7-.362-1.628-.544-2.784-.544-1.846 0-3.622.462-5.334 1.384-1.472.792-2.724 1.902-3.78 3.296l1.07-4.032-2.34.004h-5.74l-7.426 27.506h8.194l3.852-14.376c.562-2.098 1.568-3.734 3.024-4.91 1.452-1.176 3.266-1.764 5.436-1.764 1.34 0 2.594.308 3.768.922m28.538-6.267c-1.52-1.212-3.456-1.816-5.806-1.816-2.062 0-4.026.47-5.884 1.41-1.864.942-3.374 2.224-4.532 3.852l.026-.182 1.376-4.38h-1.584v.004h-6.414l-2.038 7.606c-.024.088-.044.172-.066.26l-8.404 31.36h8.194l4.232-15.788c.414 1.41 1.276 2.514 2.582 3.308 1.308.796 2.918 1.194 4.836 1.194 2.388 0 4.658-.578 6.814-1.736 2.154-1.156 4.026-2.812 5.614-4.964 1.59-2.15 2.762-4.638 3.518-7.46.756-2.822.914-5.334.476-7.542-.44-2.204-1.42-3.914-2.94-5.126m-5.726 12.668c-.69 2.57-1.758 4.53-3.206 5.886-1.45 1.358-3.186 2.034-5.21 2.034-2.026 0-3.406-.686-4.14-2.06-.736-1.374-.756-3.364-.056-5.968.698-2.604 1.784-4.604 3.26-5.996 1.476-1.392 3.228-2.088 5.254-2.088 1.988 0 3.34.724 4.056 2.17.714 1.448.728 3.456.042 6.022m78.588-13.772.006-.008h-4.964c-.158 0-.298.004-.444.008h-2.574l-1.318 1.834c-.106.14-.212.278-.324.44l-.144.212-10.468 14.578-2.17-17.072h-8.574l4.342 25.942-9.59 13.284h8.544l2.324-3.292c.068-.098.126-.178.2-.282l2.712-3.844.076-.11 12.134-17.202 10.224-14.476.014-.012h-.006z" fill="#FFF"/><path fill="#3395FF" d="m19.318 22.122-2.452 9.026L30.9 22.072l-9.178 34.244 9.32.008L44.6 5.744z"/><path d="M4.212 41.928.354 56.324h19.104l7.816-29.288c-.006.006-23.062 14.892-23.062 14.892M334.72 0 290 58h11.851l43.89-58z" fill="#FFF"/><path fill="#FFF" d="M310.574 41.188 333.89 72h13.852L314.63 29z"/></g></svg>